<svg xmlns="http://www.w3.org/2000/svg" width="92.49" height="82.102" viewBox="0 0 92.49 82.102">
  <g id="Group_2328" data-name="Group 2328" transform="translate(0 0.031)">
    <g id="Group_193" data-name="Group 193" transform="translate(0 15.904)">
      <path id="Path_567" data-name="Path 567" d="M75.967,45.731,52.436,32l-.3.05L34.825,40.507a20.2,20.2,0,0,0-7.612,6.567L19.7,58.118,4.079,67.272A7.4,7.4,0,0,0,.448,73.391L.1,84.137l-.1.3L23.531,98.167,77.559,67.372A11.626,11.626,0,0,0,81.738,61.6c1.045-3.582-5.622-15.82-5.622-15.82" transform="translate(10 -37)" fill="#fe572d"/>
    </g>
    <path id="Path_568" data-name="Path 568" d="M94.686,14.412a1.271,1.271,0,0,0-.746-.6L70.557.133a1.16,1.16,0,0,0-.995-.1,1.768,1.768,0,0,0-.5.1L51.8,8.591a20.959,20.959,0,0,0-8.059,6.965l-7.064,10.3a1.085,1.085,0,0,0-.2.249.174.174,0,0,1-.05.1l-.1.149L20.908,35.406a8.591,8.591,0,0,0-4.229,7.114l-.348,10.7a1.278,1.278,0,0,0,.547,1.492L40.409,68.439a1.377,1.377,0,0,0,.647.149,1,1,0,0,0,.647-.2l.348-.2a1.745,1.745,0,0,0,.4-.249l2.985-1.89a3.924,3.924,0,0,0,3.88,3.134,6.156,6.156,0,0,0,2.935-.846,13.022,13.022,0,0,0,5.622-8.308c.1-.05.149-.05.249-.1L84.437,45.057A3.717,3.717,0,0,0,87.671,46.8a6.156,6.156,0,0,0,2.935-.846,12.639,12.639,0,0,0,5.771-10,2.628,2.628,0,0,0-.05-.647,5.535,5.535,0,0,0,4.229-4.129C101.5,27.3,95.83,16.5,94.686,14.412ZM45.732,17a18.5,18.5,0,0,1,7.114-6.169L69.761,2.571,90.9,14.909,75.781,22.322a20.959,20.959,0,0,0-8.059,6.965l-6.617,9.7L39.365,26.3ZM22.2,37.545l15.621-9.154.05-.05L59.165,40.779,44.936,49.137a8.591,8.591,0,0,0-4.229,7.114l-.05,1.144-6.119-3.582A1.237,1.237,0,1,0,33.3,55.952l7.114,4.129a.183.183,0,0,0,.149.05l-.2,5.373L18.818,52.918l.149-4.527,5.721,3.333a1.377,1.377,0,0,0,.647.149,1.248,1.248,0,0,0,1.094-.6,1.227,1.227,0,0,0-.448-1.691l-6.915-4.03.1-2.985A6.059,6.059,0,0,1,22.2,37.545ZM50.906,66.151a3.535,3.535,0,0,1-1.691.547c-1.443,0-1.592-1.691-1.592-2.438A10.122,10.122,0,0,1,52.15,56.45a3.535,3.535,0,0,1,1.691-.547c1.443,0,1.592,1.691,1.592,2.438A10.122,10.122,0,0,1,50.906,66.151ZM89.213,43.764a3.535,3.535,0,0,1-1.691.547c-1.443,0-1.592-1.691-1.592-2.438a10.122,10.122,0,0,1,4.527-7.811,3.535,3.535,0,0,1,1.691-.547c1.443,0,1.592,1.691,1.592,2.438A10.122,10.122,0,0,1,89.213,43.764Zm8.806-13.283a2.914,2.914,0,0,1-2.537,2.388,3.8,3.8,0,0,0-3.333-1.841,6.156,6.156,0,0,0-2.935.846,12.081,12.081,0,0,0-4.676,5.472L65.334,48.49a1.227,1.227,0,0,0-.448,1.691,1.248,1.248,0,0,0,1.094.6,1.532,1.532,0,0,0,.647-.149l16.965-9.85a7.346,7.346,0,0,0-.05,1.045,4.279,4.279,0,0,0,.05.8L57.921,57.1c-.4-2.288-1.89-3.731-3.98-3.731a6.156,6.156,0,0,0-2.935.846,12.657,12.657,0,0,0-5.671,8.905L43,64.609l.3-8.358a6.009,6.009,0,0,1,3.035-5.074l15.621-9.154a1.341,1.341,0,0,0,.4-.348L69.861,30.68a18.5,18.5,0,0,1,7.114-6.169L93.144,16.6C95.631,21.526,98.566,28.491,98.019,30.481Z" transform="translate(-8.172 0)" fill="black"/>
  </g>
</svg>
