<svg xmlns="http://www.w3.org/2000/svg" width="110.448" height="59.548" viewBox="0 0 110.448 59.548">
  <g id="Сгруппировать_2327" data-name="Сгруппировать 2327" transform="translate(0 0.1)">
    <g id="Сгруппировать_49" data-name="Сгруппировать 49" transform="translate(0 12.6)">
      <path id="Контур_119" data-name="Контур 119" d="M71.26,52.837,100.8,70.116l-9.3,4.716-34.387-10.5h0L39.832,72.86a3.126,3.126,0,0,1-1.243.472l-20.923,3a2.949,2.949,0,0,1-2.358-.643L0,63.77,7.289,59.4l15.65,4.373L73.447,33.585A26.625,26.625,0,0,1,89.825,29.6c9.819.729-.343,9.476-.343,9.476Z" transform="translate(10 -34)" fill="#fe572d"/>
    </g>
    <g id="Сгруппировать_50" data-name="Сгруппировать 50" transform="translate(7.503 -0.1)" fill="black">
      <path id="Контур_120" data-name="Контур 120" d="M119.888,40.675,91.761,24.211,108.7,11.391l.043-.043c.986-.858,5.96-5.317,4.845-8.618-.515-1.586-2.23-2.53-5.1-2.744-.729-.043-1.415-.086-2.144-.086A27.672,27.672,0,0,0,91.418,4.145L74.525,14.221c-.043-.043-.129-.086-.172-.129L51.458,2.3a.985.985,0,0,0-1.029.043L44,6.2a1.278,1.278,0,0,0-.515.729,1.05,1.05,0,0,0,.214.858L56.9,24.811l-15.564,9.3L26.161,29.87A1.01,1.01,0,0,0,25.3,30l-7.289,4.373a1.029,1.029,0,0,0-.515.858,1.077,1.077,0,0,0,.429.9L33.235,48.05a4.26,4.26,0,0,0,2.573.9,2.831,2.831,0,0,0,.6-.043l20.923-3a4.2,4.2,0,0,0,1.586-.6l16.807-8.318,34,10.376a1.089,1.089,0,0,0,.815-.086l9.3-4.716a1.137,1.137,0,0,0,.6-.943A1.175,1.175,0,0,0,119.888,40.675ZM58.661,23.61,46.141,7.446l4.888-2.916L72.467,15.593,58.79,23.782C58.7,23.7,58.7,23.653,58.661,23.61Zm51.323,21.567L76.026,34.8a1.179,1.179,0,0,0-.772.043L57.975,43.376c-.043,0-.086.043-.129.043a1.926,1.926,0,0,1-.772.3l-20.923,3a2,2,0,0,1-1.544-.429L28.176,41.4l3.387-1.972a1.066,1.066,0,1,0-1.072-1.844l-3.859,2.23a.935.935,0,0,0-.214.172L24.66,38.617l3.259-1.887a1.066,1.066,0,1,0-1.072-1.844l-3.859,2.23c-.043.043-.086.043-.129.086l-2.4-1.844,5.531-3.3L41.168,36.3a1.01,1.01,0,0,0,.858-.129L92.576,5.988c.043,0,.043-.043.086-.043a24.225,24.225,0,0,1,10.633-3.687c.729.214,2.058.772,2.187,1.5.043.343,0,1.629-3.644,4.073C93.09,13.663,89.06,16.364,89.06,16.364a1.094,1.094,0,0,0-.3,1.5,1.119,1.119,0,0,0,.9.472.984.984,0,0,0,.6-.172s4.03-2.7,12.777-8.532c3.43-2.272,4.931-4.33,4.588-6.217a2.565,2.565,0,0,0-.6-1.286c.429,0,.9.043,1.329.043,1.844.129,3,.6,3.216,1.243.472,1.415-2.23,4.588-4.2,6.3L89.189,23.525a1.077,1.077,0,0,0-.429.9,1.029,1.029,0,0,0,.515.858L117.1,41.575Z" transform="translate(-17.5 0.1)"/>
      <path id="Контур_121" data-name="Контур 121" d="M165.59,48.405l-3,1.715a1.058,1.058,0,0,0-.386,1.458,1.117,1.117,0,0,0,.943.557,1.142,1.142,0,0,0,.514-.129l3-1.715a1.058,1.058,0,0,0,.386-1.458A1.037,1.037,0,0,0,165.59,48.405Z" transform="translate(-100.076 -27.525)"/>
      <path id="Контур_122" data-name="Контур 122" d="M148.59,58.405l-3,1.715a1.058,1.058,0,0,0-.386,1.458,1.117,1.117,0,0,0,.943.557,1.142,1.142,0,0,0,.515-.129l3-1.715a1.058,1.058,0,0,0,.386-1.458A1.037,1.037,0,0,0,148.59,58.405Z" transform="translate(-90.365 -33.237)"/>
    </g>
  </g>
</svg>
