<svg xmlns="http://www.w3.org/2000/svg" width="17.245" height="17.245" viewBox="0 0 17.245 17.245">
  <g id="Group_819" data-name="Group 819" transform="translate(-330 -365)">
    <circle id="Ellipse_229" data-name="Ellipse 229" cx="5.5" cy="5.5" r="5.5" transform="translate(333 368)" fill="#fff"/>
    <path id="Icon_ionic-ios-checkmark-circle" data-name="Icon ionic-ios-checkmark-circle" d="M12,3.375A8.623,8.623,0,1,0,20.62,12,8.621,8.621,0,0,0,12,3.375Zm4.415,6.239L10.87,15.181h0a.749.749,0,0,1-.481.228.726.726,0,0,1-.485-.236L7.578,12.852a.165.165,0,0,1,0-.236l.738-.738a.16.16,0,0,1,.232,0l1.841,1.841,5.057-5.095a.164.164,0,0,1,.116-.05h0a.151.151,0,0,1,.116.05l.725.75A.163.163,0,0,1,16.412,9.614Z" transform="translate(326.625 361.625)" fill="#44ab46"/>
  </g>
</svg>
