<?xml version="1.0" standalone="no"?>
<!DOCTYPE svg PUBLIC "-//W3C//DTD SVG 20010904//EN"
 "http://www.w3.org/TR/2001/REC-SVG-20010904/DTD/svg10.dtd">
<svg version="1.0" xmlns="http://www.w3.org/2000/svg"
 width="987.000000pt" height="956.000000pt" viewBox="0 0 987.000000 956.000000"
 preserveAspectRatio="xMidYMid meet">

<g transform="translate(0.000000,956.000000) scale(0.100000,-0.100000)"
fill="#555" stroke="none">
<path d="M4600 9554 c-148 -13 -343 -38 -460 -60 -255 -46 -691 -162 -918
-243 -489 -175 -1080 -524 -1498 -885 -159 -137 -525 -512 -636 -651 -642
-806 -978 -1634 -1074 -2655 -20 -220 -15 -732 10 -940 45 -370 123 -729 220
-1015 72 -214 241 -603 322 -745 492 -858 1288 -1604 2090 -1961 255 -113 519
-204 764 -264 102 -24 529 -87 819 -120 100 -12 203 -16 340 -13 172 3 201 5
236 23 33 17 40 25 40 50 0 41 -38 58 -190 85 -288 52 -350 69 -327 92 9 9 49
7 167 -7 100 -11 188 -16 247 -12 116 6 440 72 658 133 91 25 251 65 355 90
599 141 1085 350 1565 675 648 439 1198 1065 1554 1769 142 280 212 463 307
803 38 139 74 256 79 261 5 5 11 -2 14 -18 4 -14 8 -37 11 -51 14 -66 -33
-332 -110 -630 -24 -93 -60 -244 -80 -334 -52 -240 -97 -333 -344 -715 -65
-99 -146 -233 -181 -296 -250 -453 -346 -588 -581 -815 -336 -324 -639 -521
-1145 -743 -162 -71 -454 -177 -574 -207 -76 -20 -115 -38 -152 -73 -56 -52
-32 -63 82 -38 36 8 112 20 169 26 278 31 551 144 1101 459 313 178 654 444
945 736 650 651 1138 1527 1334 2390 76 335 102 590 103 975 0 395 -29 690
-102 1050 -286 1409 -1114 2560 -2336 3245 -487 272 -1092 489 -1610 575 -273
45 -377 52 -779 55 -214 1 -410 1 -435 -1z m722 -919 c635 -67 1127 -255 1843
-703 205 -129 336 -239 493 -415 260 -293 502 -655 637 -957 320 -711 448
-1567 335 -2240 -55 -327 -213 -838 -345 -1118 -147 -310 -411 -693 -688
-1001 -345 -381 -811 -717 -1293 -932 -233 -104 -384 -155 -646 -220 -393 -97
-559 -115 -983 -106 -457 10 -743 56 -1190 192 -439 134 -827 340 -1205 641
-172 137 -444 410 -584 584 -493 617 -788 1359 -857 2159 -17 196 -6 635 20
828 77 566 271 1101 572 1580 124 197 354 509 443 601 157 162 470 437 538
473 13 7 -9 -22 -48 -63 -39 -41 -91 -102 -114 -134 -24 -33 -87 -104 -140
-159 -97 -100 -130 -146 -130 -184 0 -61 70 -18 345 212 171 143 490 355 740
490 487 264 1088 446 1605 487 148 11 476 4 652 -15z"/>
<path d="M5845 5656 c-190 -62 -318 -174 -412 -359 -110 -219 -164 -555 -129
-795 59 -400 222 -642 498 -739 139 -50 280 -27 421 67 41 28 77 50 80 50 2 0
21 -25 41 -55 35 -53 38 -55 82 -55 l45 0 -2 343 c-2 256 1 348 10 365 20 38
70 62 129 62 l52 0 0 70 0 70 -375 0 -375 0 0 -71 c0 -62 2 -70 17 -65 27 11
101 -5 136 -28 17 -12 43 -42 57 -66 24 -43 25 -52 24 -210 0 -143 -3 -173
-22 -225 -39 -108 -124 -163 -211 -137 -121 37 -203 201 -243 487 -17 121 -17
582 0 697 48 327 149 481 317 481 163 0 278 -153 359 -478 l23 -90 41 -3 42
-3 0 330 0 331 -43 0 c-39 0 -44 -3 -67 -40 -14 -22 -32 -40 -40 -40 -9 0 -47
20 -85 43 -144 90 -239 106 -370 63z"/>
<path d="M7470 5664 c-339 -91 -540 -421 -575 -944 -12 -181 40 -431 126 -607
84 -171 204 -283 372 -345 158 -59 309 -32 463 82 l50 38 38 -59 c37 -57 40
-59 82 -59 l44 0 0 340 c0 374 2 385 60 415 16 8 52 15 80 15 l50 0 0 70 0 70
-375 0 -375 0 0 -68 0 -68 53 0 c61 -1 104 -21 141 -64 40 -49 49 -99 44 -265
-6 -169 -25 -240 -79 -295 -116 -116 -277 -20 -349 207 -96 306 -88 949 15
1206 55 137 143 210 253 210 169 0 281 -160 372 -530 10 -42 12 -43 50 -43
l40 0 0 330 0 330 -40 0 c-35 0 -43 -4 -66 -40 -15 -22 -33 -40 -41 -40 -9 0
-48 20 -88 45 -132 83 -225 101 -345 69z"/>
<path d="M1400 5315 l0 -335 48 0 48 0 13 73 c16 88 64 227 98 286 56 97 153
171 226 171 l27 0 0 -762 c0 -739 -1 -764 -20 -795 -25 -42 -70 -64 -142 -70
l-58 -6 0 -53 0 -54 380 0 380 0 0 54 0 53 -55 6 c-69 7 -112 31 -136 77 -18
33 -19 72 -19 792 l0 758 28 0 c45 0 124 -44 171 -94 56 -62 108 -175 139
-306 13 -58 26 -111 28 -117 2 -8 22 -13 55 -13 l52 0 -7 77 c-3 42 -6 192 -6
335 l0 258 -625 0 -625 0 0 -335z"/>
<path d="M3210 5079 c-152 -23 -252 -103 -291 -231 -17 -54 -20 -84 -15 -129
11 -112 62 -172 144 -172 86 0 136 70 136 188 0 87 -24 143 -72 167 l-34 16
34 18 c46 25 144 25 181 0 54 -36 71 -87 75 -226 l4 -126 -74 -28 c-202 -78
-360 -201 -425 -333 -34 -70 -37 -82 -37 -162 1 -197 91 -306 271 -326 103
-11 164 12 244 95 l66 68 17 -40 c42 -93 133 -140 231 -118 78 17 119 50 155
123 26 54 32 80 37 161 l6 96 -42 0 c-40 0 -41 -1 -41 -32 -1 -46 -18 -119
-36 -146 -12 -18 -19 -20 -33 -12 -37 19 -41 61 -41 439 0 380 -6 461 -42 543
-56 131 -221 197 -418 167z m158 -851 c-3 -198 -5 -216 -26 -260 -16 -31 -34
-51 -57 -63 -32 -15 -38 -15 -69 0 -54 26 -71 71 -71 190 0 110 16 161 75 235
28 35 124 109 143 110 5 0 7 -96 5 -212z"/>
<path d="M4464 5075 c-146 -31 -264 -126 -334 -269 -124 -251 -124 -542 0
-794 73 -146 187 -236 343 -268 65 -14 75 -13 150 6 151 38 256 126 326 274
102 212 115 439 40 671 -63 195 -172 318 -327 365 -86 26 -131 29 -198 15z
m122 -114 c41 -25 78 -103 101 -211 25 -120 25 -533 0 -665 -30 -154 -88 -245
-158 -245 -33 0 -92 68 -112 131 -38 116 -50 227 -51 449 0 310 31 460 111
530 39 35 66 37 109 11z"/>
</g>
</svg>
