<svg xmlns="http://www.w3.org/2000/svg" width="120.119" height="97.12" viewBox="0 0 120.119 97.12">
  <g id="Group_5236" data-name="Group 5236" transform="translate(-357.186 -385.886)">
    <g id="Group_5234" data-name="Group 5234" transform="translate(358.456 405.382)">
      <path id="Path_5858" data-name="Path 5858" d="M467.216,436.638,449.4,426.35,378.654,467.4l.123.106s-13.617,6.236-17.549,18.359c-1.784,5.5-1.612,7.83-.892,8.735l.067-.052,13.9,7.911a11.593,11.593,0,0,0,11.575-.06l81.339-47.41V436.55" transform="translate(-349.823 -432.35)" fill="#fe572d"/>
    </g>
    <g id="Group_5235" data-name="Group 5235" transform="translate(357.186 385.887)" fill="black">
      <path id="Path_5859" data-name="Path 5859" d="M475.493,414.688,394.155,462.1a10.424,10.424,0,0,1-10.373.053l-13.742-7.822c-.184-.571-.358-2.23.969-6.563l17.27,9.669a1.2,1.2,0,0,0,1.651-.484,55.09,55.09,0,0,1,18.788-19.106L476.7,398.421a1.2,1.2,0,0,0,0-2.085l-17.82-10.288a1.206,1.206,0,0,0-1.207,0L386.933,427.1a1.2,1.2,0,0,0-.36.337c-2.726,1.373-13.981,7.618-17.607,18.8-1.685,5.2-1.9,8.329-.689,9.857a1.193,1.193,0,0,0,.743.432l.383.218-7.776,4.537a1.2,1.2,0,0,0-.647.378l-3.2,1.865A1.2,1.2,0,1,0,359,465.6l2.949-1.721,10.894,6.343-1.715,1a1.2,1.2,0,1,0,1.214,2.08l12.979-7.572a1.183,1.183,0,0,0,.294-.25,12.84,12.84,0,0,0,9.754-1.3l81.339-47.411a1.2,1.2,0,1,0-1.213-2.081Zm-17.212-26.2,15.413,8.9L407.5,435.765q-.992.583-1.933,1.2l-15.61-8.835ZM387.657,429.59l15.708,8.891a58.047,58.047,0,0,0-14.949,16.27l-16.595-9.291C375.628,436.206,385.341,430.777,387.657,429.59ZM375.2,468.81l-10.865-6.326,2.906-1.7,10.894,6.344-2.909,1.7C375.219,468.823,375.212,468.816,375.2,468.81Zm5.326-3.073-10.894-6.343,2.188-1.277,10.767,6.128c.086.049.174.091.261.137Z" transform="translate(-357.186 -385.887)"/>
      <path id="Path_5860" data-name="Path 5860" d="M473.873,486.284l-12.227,7.035a1.245,1.245,0,0,0-.645,1.043V501.2a1.2,1.2,0,1,0,2.409,0v-6.138l11.625-6.687a1.211,1.211,0,0,0,.462-1.645A1.18,1.18,0,0,0,473.873,486.284Z" transform="translate(-410.983 -437.829)"/>
      <path id="Path_5861" data-name="Path 5861" d="M510.734,464.59l-12.158,7.035a1.181,1.181,0,0,0-.576,1.043V479.5a1.2,1.2,0,0,0,2.409,0v-6.139l11.555-6.687a1.2,1.2,0,0,0,.428-1.645A1.22,1.22,0,0,0,510.734,464.59Z" transform="translate(-430.156 -426.587)"/>
      <path id="Path_5862" data-name="Path 5862" d="M548.587,442.9,536.5,449.932a1.121,1.121,0,0,0-.5,1.043v6.834a1.2,1.2,0,1,0,2.409,0V451.67l11.482-6.687a1.191,1.191,0,0,0,.391-1.645A1.264,1.264,0,0,0,548.587,442.9Z" transform="translate(-449.848 -415.346)"/>
    </g>
  </g>
</svg>
