<svg id="Group_154" data-name="Group 154" xmlns="http://www.w3.org/2000/svg" width="94.298" height="94.004" viewBox="0 0 94.298 94.004">
  <g id="Group_38" data-name="Group 38" transform="translate(0 13.836)">
    <path id="Path_110" data-name="Path 110" d="M0,92.078l.042-3.522,5.618-10.9,7.883-4.109,1.8-9.015L70.482,33l17.61,10.1-.545,27.8-6,3.4L66.793,83.021,29.728,104.7l-14.382,8.47L0,104.489.042,91.952" transform="translate(10 -38)" fill="#fe572d"/>
  </g>
  <g id="Group_39" data-name="Group 39" transform="translate(4.193)" fill="black">
    <path id="Path_111" data-name="Path 111" d="M17.648,157.5a1.038,1.038,0,0,0-1.048,1.048v2.222a1.048,1.048,0,0,0,2.1,0v-2.222A1.038,1.038,0,0,0,17.648,157.5Z" transform="translate(-13.833 -91.462)"/>
    <path id="Path_112" data-name="Path 112" d="M40.648,171a1.038,1.038,0,0,0-1.048,1.048v2.222a1.048,1.048,0,0,0,2.1,0v-2.222A1.065,1.065,0,0,0,40.648,171Z" transform="translate(-27.189 -99.302)"/>
    <path id="Path_113" data-name="Path 113" d="M99.686,10.273,82.076.126a1.155,1.155,0,0,0-1.048,0L25.891,31.7c-.042,0-.042.042-.084.042s-.042.042-.084.042l-.126.126-.042.042a.916.916,0,0,0-.126.21V32.2a.252.252,0,0,0-.042.168v.042l-1.677,8.512-7.463,3.9h0c-.084.042-.126.084-.21.126L16,44.99l-.126.126c0,.042-.042.042-.042.084a.041.041,0,0,1-.042.042l-5.618,10.9a.845.845,0,0,0-.126.461L10,60.126a.714.714,0,0,0,.042.293L10,72.537a1.093,1.093,0,0,0,.545.922l15.346,8.679a1.117,1.117,0,0,0,.5.126h.168a1.117,1.117,0,0,0,.5-.126L32.39,79.2a3.224,3.224,0,0,0,3.019,2.054,5.188,5.188,0,0,0,2.474-.713,10.659,10.659,0,0,0,4.78-7.3l30.86-18.071a3.06,3.06,0,0,0,2.893,1.971,4.388,4.388,0,0,0,2.264-.671,9.715,9.715,0,0,0,4.444-7.673c0-2.642-1.635-3.857-3.229-3.857a4.388,4.388,0,0,0-2.264.671,9.789,9.789,0,0,0-4.444,7.338L42.621,70.86a3.356,3.356,0,0,0-3.312-2.851,5.188,5.188,0,0,0-2.474.713,10.548,10.548,0,0,0-4.864,8.344l-4.528,2.516.084-10.9a1.783,1.783,0,0,0-.084-.461l.084-3.9,3.354-9.727a.041.041,0,0,0,.042-.042l7.338-4.57c.042-.042.126-.084.168-.126h0l4.7-4.361-.042,17.484a.991.991,0,0,0,1.048,1.048,1,1,0,0,0,.5-.126L70.671,48.847a1.043,1.043,0,1,0-1.048-1.8L45.136,61.174l.042-17.484L97.967,13.082l-.5,25.283-4.528,2.558A3.081,3.081,0,0,0,90,38.826a4.388,4.388,0,0,0-2.264.671,9.715,9.715,0,0,0-4.444,7.673c0,2.642,1.635,3.857,3.229,3.857a4.388,4.388,0,0,0,2.264-.671,9.627,9.627,0,0,0,4.4-7.212l5.786-3.27a.978.978,0,0,0,.545-.881l.545-27.8A.767.767,0,0,0,99.686,10.273ZM87.862,48.554a2.666,2.666,0,0,1-1.216.377c-1.006,0-1.132-1.216-1.132-1.761a7.556,7.556,0,0,1,3.4-5.87,2.666,2.666,0,0,1,1.216-.377c1.006,0,1.132,1.216,1.132,1.761A7.691,7.691,0,0,1,87.862,48.554ZM81.531,2.264l15.556,8.973-52.83,30.65L28.491,32.621Zm-44.4,46-6.457,3.983-11.74-6.5,6.164-3.229a.041.041,0,0,0,.042-.042.09.09,0,0,0,.084-.084c.042,0,.042-.042.084-.042l.084-.084c.042-.042.042-.042.042-.084.042-.042.042-.042.042-.084s.042-.042.042-.084.042-.042.042-.084.042-.084.042-.126v-.042l1.509-7.547,15.346,9.057ZM12.1,71.908l.042-9.979L25.43,69.476l-.084,9.937ZM78.679,47.38A2.666,2.666,0,0,1,79.9,47c1.006,0,1.132,1.216,1.132,1.761a7.556,7.556,0,0,1-3.4,5.87,2.666,2.666,0,0,1-1.216.377c-1.006,0-1.132-1.216-1.132-1.761A7.556,7.556,0,0,1,78.679,47.38Zm-40.8,23.1a2.979,2.979,0,0,1,1.426-.461c1.216,0,1.342,1.426,1.342,2.055a8.531,8.531,0,0,1-3.816,6.583,2.979,2.979,0,0,1-1.426.461c-1.216,0-1.342-1.426-1.342-2.055A8.668,8.668,0,0,1,37.883,70.482ZM25.514,63.774a.817.817,0,0,0-.042.335l-.084,2.935L12.138,59.539,12.18,56.9l5.031-9.686L28.952,54Z" transform="translate(-10 0)"/>
  </g>
</svg>
