<?xml version="1.0" standalone="no"?>
<!DOCTYPE svg PUBLIC "-//W3C//DTD SVG 20010904//EN"
 "http://www.w3.org/TR/2001/REC-SVG-20010904/DTD/svg10.dtd">
<svg version="1.0" xmlns="http://www.w3.org/2000/svg"
 width="512.000000pt" height="512.000000pt" viewBox="0 0 512.000000 512.000000"
 preserveAspectRatio="xMidYMid meet">

<g transform="translate(0.000000,512.000000) scale(0.100000,-0.100000)"
fill="#ffffff" stroke="none">
<path d="M1765 4794 c-214 -21 -345 -45 -495 -90 -620 -188 -1085 -631 -1224
-1165 -122 -470 11 -953 363 -1321 54 -57 132 -130 174 -163 l75 -60 -86 -170
c-77 -152 -86 -176 -86 -226 -1 -46 4 -62 26 -91 31 -41 82 -68 128 -68 19 0
154 52 326 125 161 69 299 125 306 125 7 0 58 -11 113 -24 115 -28 298 -53
469 -64 l118 -7 23 -60 c135 -355 475 -654 907 -799 251 -84 544 -115 807 -85
l100 12 402 -173 c362 -155 407 -172 446 -167 78 9 143 81 143 160 0 25 -33
101 -111 258 l-110 222 33 26 c230 180 377 377 451 606 41 128 51 191 51 330
0 134 -10 203 -46 315 -123 382 -480 709 -938 860 -63 21 -154 46 -202 56
l-88 18 0 56 c0 74 -25 237 -51 330 -176 633 -798 1115 -1574 1220 -85 11
-383 21 -450 14z m336 -324 c594 -58 1095 -368 1311 -813 59 -120 90 -235 103
-377 l7 -76 -147 -12 c-427 -35 -798 -189 -1068 -443 -231 -216 -356 -461
-382 -751 l-7 -78 -87 6 c-137 9 -351 42 -447 70 -120 35 -151 33 -264 -16
-52 -23 -105 -46 -117 -51 l-22 -8 20 42 c26 59 25 126 -4 168 -12 19 -67 66
-122 104 -195 137 -360 327 -451 519 -72 153 -97 263 -98 436 -1 266 64 454
235 681 313 414 939 658 1540 599z m1704 -1615 c288 -51 532 -167 712 -338 95
-90 156 -172 204 -272 56 -116 73 -191 73 -320 0 -136 -20 -224 -79 -340 -79
-155 -181 -263 -358 -382 -111 -75 -139 -107 -144 -172 -4 -39 2 -60 41 -138
40 -83 43 -91 23 -84 -12 5 -105 45 -207 89 -102 44 -195 82 -206 86 -12 4
-77 0 -145 -9 -155 -19 -267 -19 -411 0 -318 42 -588 161 -785 348 -95 90
-156 172 -204 272 -57 118 -73 191 -73 325 0 134 16 207 73 325 154 321 523
555 979 620 121 18 380 13 507 -10z"/>
<path d="M1204 3815 c-54 -32 -78 -81 -72 -150 2 -29 13 -63 24 -78 23 -33 90
-67 130 -67 48 1 109 34 134 74 49 80 18 190 -64 227 -56 25 -103 24 -152 -6z"/>
<path d="M2490 3817 c-59 -31 -82 -76 -78 -147 5 -67 27 -102 84 -130 50 -25
87 -25 140 -1 55 25 86 77 86 141 0 64 -31 116 -86 141 -55 25 -94 24 -146 -4z"/>
<path d="M2966 2377 c-55 -31 -78 -78 -74 -147 5 -67 27 -102 84 -130 50 -25
87 -25 140 -1 55 25 86 77 86 141 0 123 -129 198 -236 137z"/>
<path d="M3924 2375 c-54 -32 -78 -81 -72 -150 5 -62 29 -98 84 -125 50 -25
87 -25 140 -1 116 53 116 229 0 282 -56 25 -103 24 -152 -6z"/>
</g>
</svg>
